<?xml version="1.0" encoding="utf-8"?>
<!-- Generator: Adobe Illustrator 19.1.0, SVG Export Plug-In . SVG Version: 6.00 Build 0)  -->
<svg version="1.1" id="Layer_2" xmlns="http://www.w3.org/2000/svg" xmlns:xlink="http://www.w3.org/1999/xlink" x="0px" y="0px"
	 viewBox="0 0 120 120" style="enable-background:new 0 0 120 120;" xml:space="preserve">
<style type="text/css">
	.st0{fill:#1E1E1E;}
	.st1{opacity:0.1;clip-path:url(#SVGID_2_);fill:#FFFFFF;}
	.st2{fill:#608B4D;}
	.st3{fill:#FFFFFF;}
</style>
<circle class="st0" cx="60" cy="60" r="60"/>
<g>
	<defs>
		<circle id="SVGID_1_" cx="60" cy="60" r="60"/>
	</defs>
	<clipPath id="SVGID_2_">
		<use xlink:href="#SVGID_1_"  style="overflow:visible;"/>
	</clipPath>
	<rect x="-4.9" y="56.7" class="st1" width="132.4" height="30.1"/>
</g>
<g>
	<g>
		<path class="st2" d="M26.7,35.1L21,48.6h-1.4l5.7-13.5H26.7z"/>
		<path class="st2" d="M36,35.1l-5.7,13.5h-1.4l5.7-13.5H36z"/>
		<path class="st2" d="M43.8,43.4c0,0.4-0.1,0.6-0.1,0.9s0,0.4,0,0.5c0,0.1,0.1,0.2,0.2,0.3c0.1,0.1,0.2,0.1,0.3,0.1
			c0.2,0,0.3-0.1,0.4-0.2c0.1-0.2,0.3-0.4,0.4-0.8c0.1-0.3,0.2-0.8,0.3-1.3c0.1-0.5,0.1-1.1,0.1-1.9c0-0.8,0-1.5-0.1-2.1
			s-0.3-1.2-0.5-1.6s-0.5-0.8-0.8-1c-0.3-0.2-0.8-0.3-1.3-0.3c-0.4,0-0.7,0.1-1.1,0.3c-0.4,0.2-0.7,0.5-1,0.8
			c-0.3,0.3-0.6,0.8-0.8,1.2c-0.2,0.5-0.5,1-0.6,1.6c-0.2,0.6-0.3,1.2-0.4,1.9c-0.1,0.7-0.1,1.4-0.1,2.1c0,1.8,0.3,3.1,0.8,4
			c0.5,0.9,1.3,1.3,2.3,1.3c0.5,0,1-0.1,1.4-0.2c0.4-0.1,0.9-0.3,1.3-0.5v1.1c-0.5,0.2-0.9,0.4-1.4,0.5s-0.9,0.2-1.4,0.2
			c-1.4,0-2.5-0.5-3.1-1.6c-0.7-1.1-1-2.6-1-4.7c0-0.8,0-1.6,0.2-2.4c0.1-0.8,0.3-1.5,0.5-2.1c0.2-0.7,0.5-1.3,0.8-1.8
			c0.3-0.5,0.7-1,1.1-1.4c0.4-0.4,0.8-0.7,1.3-0.9c0.5-0.2,1-0.3,1.5-0.3c0.7,0,1.2,0.1,1.7,0.4c0.5,0.3,0.9,0.7,1.2,1.2
			c0.3,0.5,0.5,1.1,0.7,1.9c0.2,0.7,0.2,1.6,0.2,2.5c0,1-0.1,1.8-0.2,2.4c-0.1,0.7-0.3,1.2-0.5,1.7s-0.5,0.7-0.8,1
			c-0.3,0.2-0.6,0.3-1,0.3c-0.4,0-0.8-0.1-1-0.3s-0.3-0.5-0.3-0.9c-0.2,0.4-0.4,0.7-0.7,0.9c-0.2,0.2-0.5,0.3-0.9,0.3
			c-0.5,0-0.9-0.2-1.2-0.6c-0.3-0.4-0.4-1-0.4-1.8c0-0.3,0-0.6,0.1-1c0-0.3,0.1-0.7,0.2-1c0.1-0.4,0.2-0.7,0.3-1
			c0.1-0.3,0.3-0.6,0.5-0.9c0.2-0.2,0.4-0.4,0.7-0.6s0.6-0.2,0.9-0.2c0.2,0,0.4,0,0.6,0.1s0.3,0.1,0.4,0.1l1.1-0.3L43.8,43.4z
			 M42.9,40.5c0-0.1-0.1-0.1-0.2-0.2c-0.1-0.1-0.2-0.1-0.4-0.1c-0.2,0-0.3,0.1-0.4,0.2s-0.3,0.3-0.4,0.5c-0.1,0.2-0.2,0.4-0.3,0.7
			c-0.1,0.2-0.1,0.5-0.2,0.8c0,0.3-0.1,0.5-0.1,0.8c0,0.3,0,0.5,0,0.7c0,0.5,0,0.9,0.1,1.1s0.2,0.3,0.4,0.3c0.1,0,0.1,0,0.2,0
			s0.1-0.1,0.2-0.2c0.1-0.1,0.2-0.2,0.2-0.3s0.2-0.3,0.3-0.6L42.9,40.5z"/>
		<path class="st2" d="M55.1,39.3c0,0.4-0.1,0.9-0.2,1.3c-0.2,0.4-0.4,0.8-0.8,1.2s-0.8,0.6-1.3,0.8c-0.5,0.2-1.2,0.3-1.9,0.3h-1.3
			v3.9H48V36H51c0.5,0,1.1,0.1,1.5,0.2c0.5,0.1,0.9,0.3,1.3,0.6c0.4,0.3,0.7,0.6,0.9,1C55,38.2,55.1,38.7,55.1,39.3z M53.6,39.4
			c0-0.7-0.2-1.2-0.7-1.6c-0.5-0.4-1.1-0.6-1.9-0.6h-1.5v4.5h1.4c0.9,0,1.5-0.2,2-0.6C53.3,40.7,53.6,40.1,53.6,39.4z"/>
		<path class="st2" d="M62.7,46.8l0-1.1c-0.5,0.4-0.9,0.8-1.4,1s-1,0.3-1.5,0.3c-0.5,0-0.9-0.1-1.2-0.2s-0.6-0.3-0.8-0.5
			c-0.2-0.2-0.4-0.5-0.5-0.8s-0.2-0.6-0.2-0.9c0-0.8,0.3-1.5,0.9-2c0.6-0.5,1.5-0.7,2.8-0.7h1.7v-0.7c0-0.5-0.2-0.9-0.5-1.2
			c-0.3-0.3-0.8-0.4-1.4-0.4c-0.5,0-0.9,0.1-1.4,0.2c-0.5,0.1-0.9,0.3-1.4,0.4v-1.3c0.2-0.1,0.4-0.1,0.6-0.2
			c0.2-0.1,0.5-0.1,0.7-0.2s0.5-0.1,0.8-0.1c0.3,0,0.5,0,0.8,0c0.5,0,1,0.1,1.4,0.2c0.4,0.1,0.7,0.3,1,0.5s0.5,0.5,0.6,0.9
			s0.2,0.7,0.2,1.2v5.7H62.7z M62.5,43h-1.8c-0.4,0-0.7,0-0.9,0.1c-0.3,0.1-0.5,0.2-0.6,0.3s-0.3,0.3-0.4,0.5
			c-0.1,0.2-0.1,0.4-0.1,0.6c0,0.2,0,0.3,0.1,0.5c0,0.1,0.1,0.3,0.2,0.4c0.1,0.1,0.3,0.2,0.4,0.3c0.2,0.1,0.4,0.1,0.6,0.1
			c0.3,0,0.7-0.1,1.1-0.3c0.4-0.2,0.9-0.5,1.4-1V43z"/>
		<path class="st2" d="M67,38.5h1.3l0,1.5c0.5-0.6,1-1,1.5-1.3s1-0.4,1.4-0.4c0.9,0,1.5,0.3,2,0.8s0.7,1.4,0.6,2.5h-1.5
			c0-0.7-0.1-1.3-0.3-1.6c-0.2-0.3-0.6-0.5-1-0.5c-0.2,0-0.4,0-0.6,0.1c-0.2,0.1-0.4,0.2-0.6,0.3c-0.2,0.2-0.4,0.3-0.7,0.6
			s-0.5,0.5-0.7,0.9v5.4H67V38.5z"/>
		<path class="st2" d="M81.4,46.8l0-1.1c-0.5,0.4-0.9,0.8-1.4,1S79,47,78.5,47c-0.5,0-0.9-0.1-1.2-0.2s-0.6-0.3-0.8-0.5
			c-0.2-0.2-0.4-0.5-0.5-0.8s-0.2-0.6-0.2-0.9c0-0.8,0.3-1.5,0.9-2c0.6-0.5,1.5-0.7,2.8-0.7h1.7v-0.7c0-0.5-0.2-0.9-0.5-1.2
			c-0.3-0.3-0.8-0.4-1.4-0.4c-0.5,0-0.9,0.1-1.4,0.2c-0.5,0.1-0.9,0.3-1.4,0.4v-1.3c0.2-0.1,0.4-0.1,0.6-0.2
			c0.2-0.1,0.5-0.1,0.7-0.2s0.5-0.1,0.8-0.1c0.3,0,0.5,0,0.8,0c0.5,0,1,0.1,1.4,0.2c0.4,0.1,0.7,0.3,1,0.5s0.5,0.5,0.6,0.9
			s0.2,0.7,0.2,1.2v5.7H81.4z M81.2,43h-1.8c-0.4,0-0.7,0-0.9,0.1c-0.3,0.1-0.5,0.2-0.6,0.3s-0.3,0.3-0.4,0.5
			c-0.1,0.2-0.1,0.4-0.1,0.6c0,0.2,0,0.3,0.1,0.5c0,0.1,0.1,0.3,0.2,0.4c0.1,0.1,0.3,0.2,0.4,0.3c0.2,0.1,0.4,0.1,0.6,0.1
			c0.3,0,0.7-0.1,1.1-0.3c0.4-0.2,0.9-0.5,1.4-1V43z"/>
		<path class="st2" d="M91.3,46.8v-6c0-0.3,0-0.5,0-0.6s0-0.3-0.1-0.4c0-0.1-0.1-0.2-0.2-0.2s-0.1-0.1-0.2-0.1c-0.1,0-0.2,0-0.3,0.1
			c-0.1,0.1-0.2,0.2-0.3,0.3c-0.1,0.1-0.2,0.3-0.4,0.6c-0.1,0.2-0.3,0.5-0.5,0.9v5.4h-1.3V41c0-0.3,0-0.6,0-0.7s0-0.3-0.1-0.4
			c0-0.1-0.1-0.2-0.2-0.2s-0.1-0.1-0.2-0.1c-0.1,0-0.2,0-0.3,0.1s-0.2,0.2-0.3,0.3c-0.1,0.1-0.2,0.3-0.4,0.6s-0.3,0.6-0.5,1v5.4
			h-1.3v-8.3h1.1l0.1,1.6c0.1-0.3,0.3-0.6,0.4-0.8s0.3-0.4,0.4-0.5c0.1-0.1,0.3-0.2,0.5-0.3c0.2-0.1,0.3-0.1,0.5-0.1
			c0.4,0,0.8,0.1,1,0.4s0.3,0.7,0.3,1.4c0.1-0.3,0.3-0.5,0.4-0.8c0.1-0.2,0.3-0.4,0.4-0.6c0.1-0.2,0.3-0.3,0.5-0.3
			c0.2-0.1,0.4-0.1,0.6-0.1c1,0,1.6,0.8,1.6,2.4v6.1H91.3z"/>
	</g>
</g>
<g>
	<path class="st3" d="M32.7,75.8c-0.9,0.5-2,0.7-3.3,0.7c-1.7,0-3-0.5-4.1-1.6c-1-1.1-1.5-2.5-1.5-4.3c0-1.9,0.6-3.4,1.7-4.6
		c1.1-1.2,2.6-1.8,4.4-1.8c1.1,0,2.1,0.2,2.8,0.5v1.5c-0.9-0.5-1.8-0.7-2.8-0.7c-1.4,0-2.5,0.5-3.3,1.4s-1.3,2.1-1.3,3.7
		c0,1.4,0.4,2.6,1.2,3.5s1.8,1.3,3.1,1.3c1.2,0,2.2-0.3,3.1-0.8V75.8z"/>
	<path class="st3" d="M38.5,76.5c-1.3,0-2.3-0.4-3-1.2c-0.7-0.8-1.1-1.8-1.1-3.2c0-1.4,0.4-2.5,1.2-3.3c0.8-0.8,1.8-1.2,3.2-1.2
		c1.3,0,2.3,0.4,3,1.2c0.7,0.8,1.1,1.9,1.1,3.2c0,1.4-0.4,2.4-1.1,3.3S39.7,76.5,38.5,76.5z M38.6,68.7c-0.9,0-1.6,0.3-2.1,0.9
		c-0.5,0.6-0.8,1.4-0.8,2.5c0,1,0.3,1.8,0.8,2.4c0.5,0.6,1.2,0.9,2.1,0.9c0.9,0,1.6-0.3,2-0.9s0.7-1.4,0.7-2.4
		c0-1.1-0.2-1.9-0.7-2.5S39.4,68.7,38.6,68.7z"/>
	<path class="st3" d="M56.9,76.3h-1.4v-4.9c0-0.9-0.1-1.6-0.4-2c-0.3-0.4-0.8-0.6-1.5-0.6c-0.6,0-1.1,0.3-1.5,0.8
		c-0.4,0.5-0.6,1.2-0.6,1.9v4.8h-1.4v-5c0-1.7-0.6-2.5-1.9-2.5c-0.6,0-1.1,0.3-1.5,0.8c-0.4,0.5-0.6,1.2-0.6,2v4.8h-1.4v-8.5h1.4
		v1.3h0c0.6-1,1.5-1.5,2.6-1.5c0.6,0,1.1,0.2,1.5,0.5c0.4,0.3,0.7,0.7,0.9,1.3c0.6-1.2,1.6-1.8,2.8-1.8c1.9,0,2.8,1.2,2.8,3.5V76.3z
		"/>
	<path class="st3" d="M71.5,76.3h-1.4v-4.9c0-0.9-0.1-1.6-0.4-2c-0.3-0.4-0.8-0.6-1.5-0.6c-0.6,0-1.1,0.3-1.5,0.8
		c-0.4,0.5-0.6,1.2-0.6,1.9v4.8h-1.4v-5c0-1.7-0.6-2.5-1.9-2.5c-0.6,0-1.1,0.3-1.5,0.8c-0.4,0.5-0.6,1.2-0.6,2v4.8h-1.4v-8.5h1.4
		v1.3h0c0.6-1,1.5-1.5,2.6-1.5c0.6,0,1.1,0.2,1.5,0.5c0.4,0.3,0.7,0.7,0.9,1.3c0.6-1.2,1.6-1.8,2.8-1.8c1.9,0,2.8,1.2,2.8,3.5V76.3z
		"/>
	<path class="st3" d="M80.9,72.4h-6c0,0.9,0.3,1.7,0.8,2.2c0.5,0.5,1.2,0.8,2,0.8c1,0,1.8-0.3,2.6-0.9v1.3c-0.7,0.5-1.7,0.8-3,0.8
		c-1.2,0-2.1-0.4-2.8-1.2s-1-1.9-1-3.3c0-1.3,0.4-2.4,1.1-3.2s1.7-1.2,2.8-1.2s2,0.4,2.6,1.1s0.9,1.7,0.9,3V72.4z M79.5,71.2
		c0-0.8-0.2-1.4-0.6-1.8c-0.4-0.4-0.9-0.7-1.6-0.7c-0.6,0-1.2,0.2-1.6,0.7c-0.4,0.5-0.7,1.1-0.8,1.8H79.5z"/>
	<path class="st3" d="M90,76.3h-1.4v-4.8c0-1.8-0.7-2.7-2-2.7c-0.7,0-1.2,0.3-1.7,0.8c-0.4,0.5-0.7,1.2-0.7,1.9v4.8H83v-8.5h1.4v1.4
		h0c0.6-1.1,1.6-1.6,2.8-1.6c0.9,0,1.6,0.3,2.1,0.9c0.5,0.6,0.7,1.5,0.7,2.6V76.3z"/>
	<path class="st3" d="M96.5,76.2c-0.3,0.2-0.7,0.3-1.3,0.3c-1.5,0-2.2-0.8-2.2-2.5v-5h-1.5v-1.2H93v-2.1l1.4-0.4v2.5h2.1v1.2h-2.1
		v4.8c0,0.6,0.1,1,0.3,1.2s0.5,0.4,1,0.4c0.3,0,0.6-0.1,0.9-0.3V76.2z"/>
</g>
</svg>
